<?xml version="1.0" encoding="UTF-8" standalone="no"?>
<!DOCTYPE svg PUBLIC "-//W3C//DTD SVG 1.1//EN"
 "http://www.w3.org/Graphics/SVG/1.1/DTD/svg11.dtd">
<!-- Generated by graphviz version 2.38.0 (20140413.2041)
 -->
<!-- Title: controllers_diagram Pages: 1 -->
<svg width="670pt" height="733pt"
 viewBox="0.00 0.00 669.71 733.00" xmlns="http://www.w3.org/2000/svg" xmlns:xlink="http://www.w3.org/1999/xlink">
<g id="graph0" class="graph" transform="scale(1 1) rotate(0) translate(255.821 459.5)">
<title>controllers_diagram</title>
<polygon fill="none" stroke="none" points="-255.821,273.5 -255.821,-459.5 413.89,-459.5 413.89,273.5 -255.821,273.5"/>
<!-- _diagram_info -->
<g id="node1" class="node"><title>_diagram_info</title>
<text text-anchor="start" x="116.026" y="156.9" font-family="Times,serif" font-size="13.00">Controllers diagram</text>
<text text-anchor="start" x="116.026" y="169.9" font-family="Times,serif" font-size="13.00">Date: Nov 30 2015 &#45; 14:51</text>
<text text-anchor="start" x="116.026" y="182.9" font-family="Times,serif" font-size="13.00">Migration version: 20151110192115</text>
<text text-anchor="start" x="116.026" y="195.9" font-family="Times,serif" font-size="13.00">Generated by RailRoady 1.4.1</text>
<text text-anchor="start" x="116.026" y="208.9" font-family="Times,serif" font-size="13.00">http://railroady.prestonlee.com</text>
</g>
<!-- ApplicationController -->
<g id="node2" class="node"><title>ApplicationController</title>
<path fill="none" stroke="black" d="M-239.821,215C-239.821,215 -124.179,215 -124.179,215 -118.179,215 -112.179,209 -112.179,203 -112.179,203 -112.179,109 -112.179,109 -112.179,103 -118.179,97 -124.179,97 -124.179,97 -239.821,97 -239.821,97 -245.821,97 -251.821,103 -251.821,109 -251.821,109 -251.821,203 -251.821,203 -251.821,209 -245.821,215 -239.821,215"/>
<text text-anchor="middle" x="-182" y="112.2" font-family="Times,serif" font-size="14.00">ApplicationController</text>
<polyline fill="none" stroke="black" points="-251.821,119 -112.179,119 "/>
<text text-anchor="start" x="-243.821" y="134.2" font-family="Times,serif" font-size="14.00">current_user</text>
<text text-anchor="start" x="-243.821" y="148.2" font-family="Times,serif" font-size="14.00">deep_clone_params</text>
<text text-anchor="start" x="-243.821" y="162.2" font-family="Times,serif" font-size="14.00">logged_in?</text>
<polyline fill="none" stroke="black" points="-251.821,169 -112.179,169 "/>
<polyline fill="none" stroke="black" points="-251.821,193 -112.179,193 "/>
<text text-anchor="start" x="-243.821" y="208.2" font-family="Times,serif" font-size="14.00">_layout</text>
</g>
<!-- ApplicationsController -->
<g id="node3" class="node"><title>ApplicationsController</title>
<path fill="none" stroke="black" d="M120.455,107C120.455,107 241.545,107 241.545,107 247.545,107 253.545,101 253.545,95 253.545,95 253.545,-139 253.545,-139 253.545,-145 247.545,-151 241.545,-151 241.545,-151 120.455,-151 120.455,-151 114.455,-151 108.455,-145 108.455,-139 108.455,-139 108.455,95 108.455,95 108.455,101 114.455,107 120.455,107"/>
<text text-anchor="middle" x="181" y="-135.8" font-family="Times,serif" font-size="14.00">ApplicationsController</text>
<polyline fill="none" stroke="black" points="108.455,-129 253.545,-129 "/>
<text text-anchor="start" x="116.455" y="-113.8" font-family="Times,serif" font-size="14.00">create</text>
<text text-anchor="start" x="116.455" y="-99.8" font-family="Times,serif" font-size="14.00">destroy</text>
<text text-anchor="start" x="116.455" y="-85.8" font-family="Times,serif" font-size="14.00">edit</text>
<text text-anchor="start" x="116.455" y="-71.8" font-family="Times,serif" font-size="14.00">edit_modal</text>
<text text-anchor="start" x="116.455" y="-57.8" font-family="Times,serif" font-size="14.00">index</text>
<text text-anchor="start" x="116.455" y="-43.8" font-family="Times,serif" font-size="14.00">new</text>
<text text-anchor="start" x="116.455" y="-29.8" font-family="Times,serif" font-size="14.00">new_modal</text>
<text text-anchor="start" x="116.455" y="-15.8" font-family="Times,serif" font-size="14.00">show</text>
<text text-anchor="start" x="116.455" y="-1.8" font-family="Times,serif" font-size="14.00">show_modal</text>
<text text-anchor="start" x="116.455" y="12.2" font-family="Times,serif" font-size="14.00">update</text>
<polyline fill="none" stroke="black" points="108.455,19 253.545,19 "/>
<polyline fill="none" stroke="black" points="108.455,43 253.545,43 "/>
<text text-anchor="start" x="116.455" y="58.2" font-family="Times,serif" font-size="14.00">_layout</text>
<text text-anchor="start" x="116.455" y="72.2" font-family="Times,serif" font-size="14.00">application_params</text>
<text text-anchor="start" x="116.455" y="86.2" font-family="Times,serif" font-size="14.00">company_params</text>
<text text-anchor="start" x="116.455" y="100.2" font-family="Times,serif" font-size="14.00">set_application</text>
</g>
<!-- BoardsController -->
<g id="node4" class="node"><title>BoardsController</title>
<path fill="none" stroke="black" d="M48.3965,-181C48.3965,-181 137.604,-181 137.604,-181 143.604,-181 149.604,-187 149.604,-193 149.604,-193 149.604,-385 149.604,-385 149.604,-391 143.604,-397 137.604,-397 137.604,-397 48.3965,-397 48.3965,-397 42.3965,-397 36.3965,-391 36.3965,-385 36.3965,-385 36.3965,-193 36.3965,-193 36.3965,-187 42.3965,-181 48.3965,-181"/>
<text text-anchor="middle" x="93" y="-381.8" font-family="Times,serif" font-size="14.00">BoardsController</text>
<polyline fill="none" stroke="black" points="36.3965,-375 149.604,-375 "/>
<text text-anchor="start" x="44.3965" y="-359.8" font-family="Times,serif" font-size="14.00">create</text>
<text text-anchor="start" x="44.3965" y="-345.8" font-family="Times,serif" font-size="14.00">destroy</text>
<text text-anchor="start" x="44.3965" y="-331.8" font-family="Times,serif" font-size="14.00">edit</text>
<text text-anchor="start" x="44.3965" y="-317.8" font-family="Times,serif" font-size="14.00">index</text>
<text text-anchor="start" x="44.3965" y="-303.8" font-family="Times,serif" font-size="14.00">new</text>
<text text-anchor="start" x="44.3965" y="-289.8" font-family="Times,serif" font-size="14.00">new_modal</text>
<text text-anchor="start" x="44.3965" y="-275.8" font-family="Times,serif" font-size="14.00">show</text>
<text text-anchor="start" x="44.3965" y="-261.8" font-family="Times,serif" font-size="14.00">update</text>
<polyline fill="none" stroke="black" points="36.3965,-255 149.604,-255 "/>
<polyline fill="none" stroke="black" points="36.3965,-231 149.604,-231 "/>
<text text-anchor="start" x="44.3965" y="-215.8" font-family="Times,serif" font-size="14.00">_layout</text>
<text text-anchor="start" x="44.3965" y="-201.8" font-family="Times,serif" font-size="14.00">board_params</text>
<text text-anchor="start" x="44.3965" y="-187.8" font-family="Times,serif" font-size="14.00">set_board</text>
</g>
<!-- CompaniesController -->
<g id="node5" class="node"><title>CompaniesController</title>
<path fill="none" stroke="black" d="M191.731,-181C191.731,-181 304.269,-181 304.269,-181 310.269,-181 316.269,-187 316.269,-193 316.269,-193 316.269,-385 316.269,-385 316.269,-391 310.269,-397 304.269,-397 304.269,-397 191.731,-397 191.731,-397 185.731,-397 179.731,-391 179.731,-385 179.731,-385 179.731,-193 179.731,-193 179.731,-187 185.731,-181 191.731,-181"/>
<text text-anchor="middle" x="248" y="-381.8" font-family="Times,serif" font-size="14.00">CompaniesController</text>
<polyline fill="none" stroke="black" points="179.731,-375 316.269,-375 "/>
<text text-anchor="start" x="187.731" y="-359.8" font-family="Times,serif" font-size="14.00">create</text>
<text text-anchor="start" x="187.731" y="-345.8" font-family="Times,serif" font-size="14.00">destroy</text>
<text text-anchor="start" x="187.731" y="-331.8" font-family="Times,serif" font-size="14.00">edit</text>
<text text-anchor="start" x="187.731" y="-317.8" font-family="Times,serif" font-size="14.00">index</text>
<text text-anchor="start" x="187.731" y="-303.8" font-family="Times,serif" font-size="14.00">new</text>
<text text-anchor="start" x="187.731" y="-289.8" font-family="Times,serif" font-size="14.00">search</text>
<text text-anchor="start" x="187.731" y="-275.8" font-family="Times,serif" font-size="14.00">show</text>
<text text-anchor="start" x="187.731" y="-261.8" font-family="Times,serif" font-size="14.00">update</text>
<polyline fill="none" stroke="black" points="179.731,-255 316.269,-255 "/>
<polyline fill="none" stroke="black" points="179.731,-231 316.269,-231 "/>
<text text-anchor="start" x="187.731" y="-215.8" font-family="Times,serif" font-size="14.00">_layout</text>
<text text-anchor="start" x="187.731" y="-201.8" font-family="Times,serif" font-size="14.00">company_params</text>
<text text-anchor="start" x="187.731" y="-187.8" font-family="Times,serif" font-size="14.00">set_company</text>
</g>
<!-- ContactsController -->
<g id="node6" class="node"><title>ContactsController</title>
<path fill="none" stroke="black" d="M-222.269,53C-222.269,53 -123.731,53 -123.731,53 -117.731,53 -111.731,47 -111.731,41 -111.731,41 -111.731,-137 -111.731,-137 -111.731,-143 -117.731,-149 -123.731,-149 -123.731,-149 -222.269,-149 -222.269,-149 -228.269,-149 -234.269,-143 -234.269,-137 -234.269,-137 -234.269,41 -234.269,41 -234.269,47 -228.269,53 -222.269,53"/>
<text text-anchor="middle" x="-173" y="-133.8" font-family="Times,serif" font-size="14.00">ContactsController</text>
<polyline fill="none" stroke="black" points="-234.269,-127 -111.731,-127 "/>
<text text-anchor="start" x="-226.269" y="-111.8" font-family="Times,serif" font-size="14.00">create</text>
<text text-anchor="start" x="-226.269" y="-97.8" font-family="Times,serif" font-size="14.00">destroy</text>
<text text-anchor="start" x="-226.269" y="-83.8" font-family="Times,serif" font-size="14.00">edit</text>
<text text-anchor="start" x="-226.269" y="-69.8" font-family="Times,serif" font-size="14.00">index</text>
<text text-anchor="start" x="-226.269" y="-55.8" font-family="Times,serif" font-size="14.00">new</text>
<text text-anchor="start" x="-226.269" y="-41.8" font-family="Times,serif" font-size="14.00">show</text>
<text text-anchor="start" x="-226.269" y="-27.8" font-family="Times,serif" font-size="14.00">update</text>
<polyline fill="none" stroke="black" points="-234.269,-21 -111.731,-21 "/>
<polyline fill="none" stroke="black" points="-234.269,3 -111.731,3 "/>
<text text-anchor="start" x="-226.269" y="18.2" font-family="Times,serif" font-size="14.00">_layout</text>
<text text-anchor="start" x="-226.269" y="32.2" font-family="Times,serif" font-size="14.00">contact_params</text>
<text text-anchor="start" x="-226.269" y="46.2" font-family="Times,serif" font-size="14.00">set_contact</text>
</g>
<!-- HomesController -->
<g id="node7" class="node"><title>HomesController</title>
<path fill="none" stroke="black" d="M300.396,-37C300.396,-37 389.604,-37 389.604,-37 395.604,-37 401.604,-43 401.604,-49 401.604,-49 401.604,-115 401.604,-115 401.604,-121 395.604,-127 389.604,-127 389.604,-127 300.396,-127 300.396,-127 294.396,-127 288.396,-121 288.396,-115 288.396,-115 288.396,-49 288.396,-49 288.396,-43 294.396,-37 300.396,-37"/>
<text text-anchor="middle" x="345" y="-111.8" font-family="Times,serif" font-size="14.00">HomesController</text>
<polyline fill="none" stroke="black" points="288.396,-105 401.604,-105 "/>
<text text-anchor="start" x="296.396" y="-89.8" font-family="Times,serif" font-size="14.00">index</text>
<polyline fill="none" stroke="black" points="288.396,-83 401.604,-83 "/>
<polyline fill="none" stroke="black" points="288.396,-59 401.604,-59 "/>
<text text-anchor="start" x="296.396" y="-43.8" font-family="Times,serif" font-size="14.00">_layout</text>
</g>
<!-- InteractionsController -->
<g id="node8" class="node"><title>InteractionsController</title>
<path fill="none" stroke="black" d="M-59.814,143C-59.814,143 55.814,143 55.814,143 61.814,143 67.814,137 67.814,131 67.814,131 67.814,-131 67.814,-131 67.814,-137 61.814,-143 55.814,-143 55.814,-143 -59.814,-143 -59.814,-143 -65.814,-143 -71.814,-137 -71.814,-131 -71.814,-131 -71.814,131 -71.814,131 -71.814,137 -65.814,143 -59.814,143"/>
<text text-anchor="middle" x="-2" y="-127.8" font-family="Times,serif" font-size="14.00">InteractionsController</text>
<polyline fill="none" stroke="black" points="-71.814,-121 67.814,-121 "/>
<text text-anchor="start" x="-63.814" y="-105.8" font-family="Times,serif" font-size="14.00">create</text>
<text text-anchor="start" x="-63.814" y="-91.8" font-family="Times,serif" font-size="14.00">destroy</text>
<text text-anchor="start" x="-63.814" y="-77.8" font-family="Times,serif" font-size="14.00">edit</text>
<text text-anchor="start" x="-63.814" y="-63.8" font-family="Times,serif" font-size="14.00">edit_modal</text>
<text text-anchor="start" x="-63.814" y="-49.8" font-family="Times,serif" font-size="14.00">followed_up</text>
<text text-anchor="start" x="-63.814" y="-35.8" font-family="Times,serif" font-size="14.00">index</text>
<text text-anchor="start" x="-63.814" y="-21.8" font-family="Times,serif" font-size="14.00">new</text>
<text text-anchor="start" x="-63.814" y="-7.8" font-family="Times,serif" font-size="14.00">new_modal</text>
<text text-anchor="start" x="-63.814" y="6.2" font-family="Times,serif" font-size="14.00">show</text>
<text text-anchor="start" x="-63.814" y="20.2" font-family="Times,serif" font-size="14.00">show_modal</text>
<text text-anchor="start" x="-63.814" y="34.2" font-family="Times,serif" font-size="14.00">update</text>
<polyline fill="none" stroke="black" points="-71.814,41 67.814,41 "/>
<polyline fill="none" stroke="black" points="-71.814,65 67.814,65 "/>
<text text-anchor="start" x="-63.814" y="80.2" font-family="Times,serif" font-size="14.00">_layout</text>
<text text-anchor="start" x="-63.814" y="94.2" font-family="Times,serif" font-size="14.00">company_params</text>
<text text-anchor="start" x="-63.814" y="108.2" font-family="Times,serif" font-size="14.00">contact_params</text>
<text text-anchor="start" x="-63.814" y="122.2" font-family="Times,serif" font-size="14.00">interaction_params</text>
<text text-anchor="start" x="-63.814" y="136.2" font-family="Times,serif" font-size="14.00">set_interaction</text>
</g>
<!-- NotesController -->
<g id="node9" class="node"><title>NotesController</title>
<path fill="none" stroke="black" d="M-96.1035,-181C-96.1035,-181 -13.8965,-181 -13.8965,-181 -7.89648,-181 -1.89648,-187 -1.89648,-193 -1.89648,-193 -1.89648,-399 -1.89648,-399 -1.89648,-405 -7.89648,-411 -13.8965,-411 -13.8965,-411 -96.1035,-411 -96.1035,-411 -102.104,-411 -108.104,-405 -108.104,-399 -108.104,-399 -108.104,-193 -108.104,-193 -108.104,-187 -102.104,-181 -96.1035,-181"/>
<text text-anchor="middle" x="-55" y="-395.8" font-family="Times,serif" font-size="14.00">NotesController</text>
<polyline fill="none" stroke="black" points="-108.104,-389 -1.89648,-389 "/>
<text text-anchor="start" x="-100.104" y="-373.8" font-family="Times,serif" font-size="14.00">create</text>
<text text-anchor="start" x="-100.104" y="-359.8" font-family="Times,serif" font-size="14.00">destroy</text>
<text text-anchor="start" x="-100.104" y="-345.8" font-family="Times,serif" font-size="14.00">edit</text>
<text text-anchor="start" x="-100.104" y="-331.8" font-family="Times,serif" font-size="14.00">edit_modal</text>
<text text-anchor="start" x="-100.104" y="-317.8" font-family="Times,serif" font-size="14.00">index</text>
<text text-anchor="start" x="-100.104" y="-303.8" font-family="Times,serif" font-size="14.00">new</text>
<text text-anchor="start" x="-100.104" y="-289.8" font-family="Times,serif" font-size="14.00">new_modal</text>
<text text-anchor="start" x="-100.104" y="-275.8" font-family="Times,serif" font-size="14.00">show</text>
<text text-anchor="start" x="-100.104" y="-261.8" font-family="Times,serif" font-size="14.00">update</text>
<polyline fill="none" stroke="black" points="-108.104,-255 -1.89648,-255 "/>
<polyline fill="none" stroke="black" points="-108.104,-231 -1.89648,-231 "/>
<text text-anchor="start" x="-100.104" y="-215.8" font-family="Times,serif" font-size="14.00">_layout</text>
<text text-anchor="start" x="-100.104" y="-201.8" font-family="Times,serif" font-size="14.00">note_params</text>
<text text-anchor="start" x="-100.104" y="-187.8" font-family="Times,serif" font-size="14.00">set_note</text>
</g>
<!-- RemindersController -->
<g id="node10" class="node"><title>RemindersController</title>
<path fill="none" stroke="black" d="M-60.1001,269C-60.1001,269 50.1001,269 50.1001,269 56.1001,269 62.1001,263 62.1001,257 62.1001,257 62.1001,189 62.1001,189 62.1001,183 56.1001,177 50.1001,177 50.1001,177 -60.1001,177 -60.1001,177 -66.1001,177 -72.1001,183 -72.1001,189 -72.1001,189 -72.1001,257 -72.1001,257 -72.1001,263 -66.1001,269 -60.1001,269"/>
<text text-anchor="middle" x="-5" y="192.2" font-family="Times,serif" font-size="14.00">RemindersController</text>
<polyline fill="none" stroke="black" points="-72.1001,199 62.1001,199 "/>
<polyline fill="none" stroke="black" points="-72.1001,223 62.1001,223 "/>
<polyline fill="none" stroke="black" points="-72.1001,247 62.1001,247 "/>
<text text-anchor="start" x="-64.1001" y="262.2" font-family="Times,serif" font-size="14.00">_layout</text>
</g>
<!-- SessionsController -->
<g id="node11" class="node"><title>SessionsController</title>
<path fill="none" stroke="black" d="M300.11,107C300.11,107 397.89,107 397.89,107 403.89,107 409.89,101 409.89,95 409.89,95 409.89,15 409.89,15 409.89,9 403.89,3 397.89,3 397.89,3 300.11,3 300.11,3 294.11,3 288.11,9 288.11,15 288.11,15 288.11,95 288.11,95 288.11,101 294.11,107 300.11,107"/>
<text text-anchor="middle" x="349" y="18.2" font-family="Times,serif" font-size="14.00">SessionsController</text>
<polyline fill="none" stroke="black" points="288.11,25 409.89,25 "/>
<text text-anchor="start" x="296.11" y="40.2" font-family="Times,serif" font-size="14.00">create</text>
<text text-anchor="start" x="296.11" y="54.2" font-family="Times,serif" font-size="14.00">destroy</text>
<polyline fill="none" stroke="black" points="288.11,61 409.89,61 "/>
<polyline fill="none" stroke="black" points="288.11,85 409.89,85 "/>
<text text-anchor="start" x="296.11" y="100.2" font-family="Times,serif" font-size="14.00">_layout</text>
</g>
<!-- UsersController -->
<g id="node12" class="node"><title>UsersController</title>
<path fill="none" stroke="black" d="M-239.714,-253C-239.714,-253 -158.286,-253 -158.286,-253 -152.286,-253 -146.286,-259 -146.286,-265 -146.286,-265 -146.286,-443 -146.286,-443 -146.286,-449 -152.286,-455 -158.286,-455 -158.286,-455 -239.714,-455 -239.714,-455 -245.714,-455 -251.714,-449 -251.714,-443 -251.714,-443 -251.714,-265 -251.714,-265 -251.714,-259 -245.714,-253 -239.714,-253"/>
<text text-anchor="middle" x="-199" y="-439.8" font-family="Times,serif" font-size="14.00">UsersController</text>
<polyline fill="none" stroke="black" points="-251.714,-433 -146.286,-433 "/>
<text text-anchor="start" x="-243.714" y="-417.8" font-family="Times,serif" font-size="14.00">create</text>
<text text-anchor="start" x="-243.714" y="-403.8" font-family="Times,serif" font-size="14.00">destroy</text>
<text text-anchor="start" x="-243.714" y="-389.8" font-family="Times,serif" font-size="14.00">edit</text>
<text text-anchor="start" x="-243.714" y="-375.8" font-family="Times,serif" font-size="14.00">index</text>
<text text-anchor="start" x="-243.714" y="-361.8" font-family="Times,serif" font-size="14.00">new</text>
<text text-anchor="start" x="-243.714" y="-347.8" font-family="Times,serif" font-size="14.00">show</text>
<text text-anchor="start" x="-243.714" y="-333.8" font-family="Times,serif" font-size="14.00">update</text>
<polyline fill="none" stroke="black" points="-251.714,-327 -146.286,-327 "/>
<polyline fill="none" stroke="black" points="-251.714,-303 -146.286,-303 "/>
<text text-anchor="start" x="-243.714" y="-287.8" font-family="Times,serif" font-size="14.00">_layout</text>
<text text-anchor="start" x="-243.714" y="-273.8" font-family="Times,serif" font-size="14.00">set_user</text>
<text text-anchor="start" x="-243.714" y="-259.8" font-family="Times,serif" font-size="14.00">user_params</text>
</g>
</g>
</svg>
