<?xml version="1.0" encoding="UTF-8" standalone="no"?>
<!DOCTYPE svg PUBLIC "-//W3C//DTD SVG 1.1//EN"
 "http://www.w3.org/Graphics/SVG/1.1/DTD/svg11.dtd">
<!-- Generated by graphviz version 2.38.0 (20140413.2041)
 -->
<!-- Title: models_diagram Pages: 1 -->
<svg width="813pt" height="772pt"
 viewBox="0.00 0.00 812.71 772.00" xmlns="http://www.w3.org/2000/svg" xmlns:xlink="http://www.w3.org/1999/xlink">
<g id="graph0" class="graph" transform="scale(1 1) rotate(0) translate(4 768)">
<title>models_diagram</title>
<polygon fill="none" stroke="none" points="-4,4 -4,-768 808.708,-768 808.708,4 -4,4"/>
<!-- _diagram_info -->
<g id="node1" class="node"><title>_diagram_info</title>
<text text-anchor="start" x="258.889" y="-707.6" font-family="Times,serif" font-size="13.00">Models diagram</text>
<text text-anchor="start" x="258.889" y="-694.6" font-family="Times,serif" font-size="13.00">Date: Nov 30 2015 &#45; 14:50</text>
<text text-anchor="start" x="258.889" y="-681.6" font-family="Times,serif" font-size="13.00">Migration version: 20151110192115</text>
<text text-anchor="start" x="258.889" y="-668.6" font-family="Times,serif" font-size="13.00">Generated by RailRoady 1.4.1</text>
<text text-anchor="start" x="258.889" y="-655.6" font-family="Times,serif" font-size="13.00">http://railroady.prestonlee.com</text>
</g>
<!-- Application -->
<g id="node2" class="node"><title>Application</title>
<path fill="none" stroke="black" d="M12,-207.5C12,-207.5 235.725,-207.5 235.725,-207.5 241.725,-207.5 247.725,-213.5 247.725,-219.5 247.725,-219.5 247.725,-365.5 247.725,-365.5 247.725,-371.5 241.725,-377.5 235.725,-377.5 235.725,-377.5 12,-377.5 12,-377.5 6,-377.5 0,-371.5 0,-365.5 0,-365.5 0,-219.5 0,-219.5 0,-213.5 6,-207.5 12,-207.5"/>
<text text-anchor="middle" x="123.862" y="-362.3" font-family="Times,serif" font-size="14.00">Application</text>
<polyline fill="none" stroke="black" points="0,-355.5 247.725,-355.5 "/>
<text text-anchor="start" x="8" y="-340.3" font-family="Times,serif" font-size="14.00">id :integer</text>
<text text-anchor="start" x="8" y="-326.3" font-family="Times,serif" font-size="14.00">stage :integer</text>
<text text-anchor="start" x="8" y="-312.3" font-family="Times,serif" font-size="14.00">settings :bytea</text>
<text text-anchor="start" x="8" y="-298.3" font-family="Times,serif" font-size="14.00">created_at :timestamp without time zone</text>
<text text-anchor="start" x="8" y="-284.3" font-family="Times,serif" font-size="14.00">updated_at :timestamp without time zone</text>
<text text-anchor="start" x="8" y="-270.3" font-family="Times,serif" font-size="14.00">board_id :integer</text>
<text text-anchor="start" x="8" y="-256.3" font-family="Times,serif" font-size="14.00">company_id :integer</text>
<text text-anchor="start" x="8" y="-242.3" font-family="Times,serif" font-size="14.00">category :integer</text>
<text text-anchor="start" x="8" y="-228.3" font-family="Times,serif" font-size="14.00">applied_date :date</text>
<text text-anchor="start" x="8" y="-214.3" font-family="Times,serif" font-size="14.00">job :character varying</text>
</g>
<!-- Interaction -->
<g id="node6" class="node"><title>Interaction</title>
<path fill="none" stroke="black" d="M544,-0.5C544,-0.5 767.725,-0.5 767.725,-0.5 773.725,-0.5 779.725,-6.5 779.725,-12.5 779.725,-12.5 779.725,-158.5 779.725,-158.5 779.725,-164.5 773.725,-170.5 767.725,-170.5 767.725,-170.5 544,-170.5 544,-170.5 538,-170.5 532,-164.5 532,-158.5 532,-158.5 532,-12.5 532,-12.5 532,-6.5 538,-0.5 544,-0.5"/>
<text text-anchor="middle" x="655.862" y="-155.3" font-family="Times,serif" font-size="14.00">Interaction</text>
<polyline fill="none" stroke="black" points="532,-148.5 779.725,-148.5 "/>
<text text-anchor="start" x="540" y="-133.3" font-family="Times,serif" font-size="14.00">id :integer</text>
<text text-anchor="start" x="540" y="-119.3" font-family="Times,serif" font-size="14.00">title :character varying</text>
<text text-anchor="start" x="540" y="-105.3" font-family="Times,serif" font-size="14.00">date :date</text>
<text text-anchor="start" x="540" y="-91.3" font-family="Times,serif" font-size="14.00">details :text</text>
<text text-anchor="start" x="540" y="-77.3" font-family="Times,serif" font-size="14.00">created_at :timestamp without time zone</text>
<text text-anchor="start" x="540" y="-63.3" font-family="Times,serif" font-size="14.00">updated_at :timestamp without time zone</text>
<text text-anchor="start" x="540" y="-49.3" font-family="Times,serif" font-size="14.00">application_id :integer</text>
<text text-anchor="start" x="540" y="-35.3" font-family="Times,serif" font-size="14.00">category :integer</text>
<text text-anchor="start" x="540" y="-21.3" font-family="Times,serif" font-size="14.00">contact_id :integer</text>
<text text-anchor="start" x="540" y="-7.3" font-family="Times,serif" font-size="14.00">followup :boolean</text>
</g>
<!-- Application&#45;&gt;Interaction -->
<g id="edge1" class="edge"><title>Application&#45;&gt;Interaction</title>
<path fill="none" stroke="#a95c4e" d="M255.182,-207.775C255.743,-207.515 256.303,-207.256 256.862,-207 341.871,-168.05 442.724,-137.718 521.765,-117.229"/>
<ellipse fill="none" stroke="#a95c4e" cx="251.488" cy="-209.541" rx="4.00002" ry="4.00002"/>
<polygon fill="#a95c4e" stroke="#a95c4e" points="522.099,-117.144 532.905,-119.013 526.942,-115.899 531.785,-114.654 531.785,-114.654 531.785,-114.654 526.942,-115.899 530.665,-110.296 522.099,-117.144 522.099,-117.144"/>
</g>
<!-- Board -->
<g id="node3" class="node"><title>Board</title>
<path fill="none" stroke="black" d="M221,-442.5C221,-442.5 444.725,-442.5 444.725,-442.5 450.725,-442.5 456.725,-448.5 456.725,-454.5 456.725,-454.5 456.725,-530.5 456.725,-530.5 456.725,-536.5 450.725,-542.5 444.725,-542.5 444.725,-542.5 221,-542.5 221,-542.5 215,-542.5 209,-536.5 209,-530.5 209,-530.5 209,-454.5 209,-454.5 209,-448.5 215,-442.5 221,-442.5"/>
<text text-anchor="middle" x="332.862" y="-527.3" font-family="Times,serif" font-size="14.00">Board</text>
<polyline fill="none" stroke="black" points="209,-520.5 456.725,-520.5 "/>
<text text-anchor="start" x="217" y="-505.3" font-family="Times,serif" font-size="14.00">id :integer</text>
<text text-anchor="start" x="217" y="-491.3" font-family="Times,serif" font-size="14.00">title :character varying</text>
<text text-anchor="start" x="217" y="-477.3" font-family="Times,serif" font-size="14.00">created_at :timestamp without time zone</text>
<text text-anchor="start" x="217" y="-463.3" font-family="Times,serif" font-size="14.00">updated_at :timestamp without time zone</text>
<text text-anchor="start" x="217" y="-449.3" font-family="Times,serif" font-size="14.00">user_id :integer</text>
</g>
<!-- Board&#45;&gt;Application -->
<g id="edge2" class="edge"><title>Board&#45;&gt;Application</title>
<path fill="none" stroke="#c0286e" d="M275.023,-436.705C257.96,-420.54 238.809,-402.397 220.02,-384.597"/>
<ellipse fill="none" stroke="#c0286e" cx="278.027" cy="-439.551" rx="4.00002" ry="4.00002"/>
<polygon fill="#c0286e" stroke="#c0286e" points="219.822,-384.41 215.658,-374.265 216.193,-380.971 212.563,-377.532 212.563,-377.532 212.563,-377.532 216.193,-380.971 209.468,-380.799 219.822,-384.41 219.822,-384.41"/>
</g>
<!-- Note -->
<g id="node7" class="node"><title>Note</title>
<path fill="none" stroke="black" d="M278,-235.5C278,-235.5 501.725,-235.5 501.725,-235.5 507.725,-235.5 513.725,-241.5 513.725,-247.5 513.725,-247.5 513.725,-337.5 513.725,-337.5 513.725,-343.5 507.725,-349.5 501.725,-349.5 501.725,-349.5 278,-349.5 278,-349.5 272,-349.5 266,-343.5 266,-337.5 266,-337.5 266,-247.5 266,-247.5 266,-241.5 272,-235.5 278,-235.5"/>
<text text-anchor="middle" x="389.862" y="-334.3" font-family="Times,serif" font-size="14.00">Note</text>
<polyline fill="none" stroke="black" points="266,-327.5 513.725,-327.5 "/>
<text text-anchor="start" x="274" y="-312.3" font-family="Times,serif" font-size="14.00">id :integer</text>
<text text-anchor="start" x="274" y="-298.3" font-family="Times,serif" font-size="14.00">details :text</text>
<text text-anchor="start" x="274" y="-284.3" font-family="Times,serif" font-size="14.00">remind_date :date</text>
<text text-anchor="start" x="274" y="-270.3" font-family="Times,serif" font-size="14.00">created_at :timestamp without time zone</text>
<text text-anchor="start" x="274" y="-256.3" font-family="Times,serif" font-size="14.00">updated_at :timestamp without time zone</text>
<text text-anchor="start" x="274" y="-242.3" font-family="Times,serif" font-size="14.00">board_id :integer</text>
</g>
<!-- Board&#45;&gt;Note -->
<g id="edge3" class="edge"><title>Board&#45;&gt;Note</title>
<path fill="none" stroke="#5b66a1" d="M349.25,-434.574C355.986,-411.176 363.831,-383.926 370.82,-359.648"/>
<ellipse fill="none" stroke="#5b66a1" cx="348.132" cy="-438.458" rx="4.00001" ry="4.00001"/>
<polygon fill="#5b66a1" stroke="#5b66a1" points="370.888,-359.41 377.979,-351.046 372.271,-354.606 373.655,-349.801 373.655,-349.801 373.655,-349.801 372.271,-354.606 369.33,-348.556 370.888,-359.41 370.888,-359.41"/>
</g>
<!-- Company -->
<g id="node4" class="node"><title>Company</title>
<path fill="none" stroke="black" d="M487,-414.5C487,-414.5 710.725,-414.5 710.725,-414.5 716.725,-414.5 722.725,-420.5 722.725,-426.5 722.725,-426.5 722.725,-558.5 722.725,-558.5 722.725,-564.5 716.725,-570.5 710.725,-570.5 710.725,-570.5 487,-570.5 487,-570.5 481,-570.5 475,-564.5 475,-558.5 475,-558.5 475,-426.5 475,-426.5 475,-420.5 481,-414.5 487,-414.5"/>
<text text-anchor="middle" x="598.862" y="-555.3" font-family="Times,serif" font-size="14.00">Company</text>
<polyline fill="none" stroke="black" points="475,-548.5 722.725,-548.5 "/>
<text text-anchor="start" x="483" y="-533.3" font-family="Times,serif" font-size="14.00">id :integer</text>
<text text-anchor="start" x="483" y="-519.3" font-family="Times,serif" font-size="14.00">name :character varying</text>
<text text-anchor="start" x="483" y="-505.3" font-family="Times,serif" font-size="14.00">location :character varying</text>
<text text-anchor="start" x="483" y="-491.3" font-family="Times,serif" font-size="14.00">website :character varying</text>
<text text-anchor="start" x="483" y="-477.3" font-family="Times,serif" font-size="14.00">logo :character varying</text>
<text text-anchor="start" x="483" y="-463.3" font-family="Times,serif" font-size="14.00">created_at :timestamp without time zone</text>
<text text-anchor="start" x="483" y="-449.3" font-family="Times,serif" font-size="14.00">updated_at :timestamp without time zone</text>
<text text-anchor="start" x="483" y="-435.3" font-family="Times,serif" font-size="14.00">user_id :integer</text>
<text text-anchor="start" x="483" y="-421.3" font-family="Times,serif" font-size="14.00">glassdoor_id :character varying</text>
</g>
<!-- Contact -->
<g id="node5" class="node"><title>Contact</title>
<path fill="none" stroke="black" d="M544,-221.5C544,-221.5 767.725,-221.5 767.725,-221.5 773.725,-221.5 779.725,-227.5 779.725,-233.5 779.725,-233.5 779.725,-351.5 779.725,-351.5 779.725,-357.5 773.725,-363.5 767.725,-363.5 767.725,-363.5 544,-363.5 544,-363.5 538,-363.5 532,-357.5 532,-351.5 532,-351.5 532,-233.5 532,-233.5 532,-227.5 538,-221.5 544,-221.5"/>
<text text-anchor="middle" x="655.862" y="-348.3" font-family="Times,serif" font-size="14.00">Contact</text>
<polyline fill="none" stroke="black" points="532,-341.5 779.725,-341.5 "/>
<text text-anchor="start" x="540" y="-326.3" font-family="Times,serif" font-size="14.00">id :integer</text>
<text text-anchor="start" x="540" y="-312.3" font-family="Times,serif" font-size="14.00">name :character varying</text>
<text text-anchor="start" x="540" y="-298.3" font-family="Times,serif" font-size="14.00">email :character varying</text>
<text text-anchor="start" x="540" y="-284.3" font-family="Times,serif" font-size="14.00">phone_number :character varying</text>
<text text-anchor="start" x="540" y="-270.3" font-family="Times,serif" font-size="14.00">created_at :timestamp without time zone</text>
<text text-anchor="start" x="540" y="-256.3" font-family="Times,serif" font-size="14.00">updated_at :timestamp without time zone</text>
<text text-anchor="start" x="540" y="-242.3" font-family="Times,serif" font-size="14.00">company_id :integer</text>
<text text-anchor="start" x="540" y="-228.3" font-family="Times,serif" font-size="14.00">role :character varying</text>
</g>
<!-- Company&#45;&gt;Contact -->
<g id="edge4" class="edge"><title>Company&#45;&gt;Contact</title>
<path fill="none" stroke="#23f0d9" d="M623.336,-406.486C626.487,-395.539 629.706,-384.359 632.833,-373.496"/>
<ellipse fill="none" stroke="#23f0d9" cx="622.17" cy="-410.537" rx="4.00001" ry="4.00001"/>
<polygon fill="#23f0d9" stroke="#23f0d9" points="632.908,-373.235 639.999,-364.87 634.291,-368.43 635.675,-363.625 635.675,-363.625 635.675,-363.625 634.291,-368.43 631.35,-362.38 632.908,-373.235 632.908,-373.235"/>
</g>
<!-- Contact&#45;&gt;Interaction -->
<g id="edge5" class="edge"><title>Contact&#45;&gt;Interaction</title>
<path fill="none" stroke="#7ed7a3" d="M655.862,-213.162C655.862,-202.665 655.862,-191.81 655.862,-181.071"/>
<ellipse fill="none" stroke="#7ed7a3" cx="655.862" cy="-217.237" rx="4" ry="4"/>
<polygon fill="#7ed7a3" stroke="#7ed7a3" points="655.862,-180.827 660.362,-170.827 655.862,-175.827 655.862,-170.827 655.862,-170.827 655.862,-170.827 655.862,-175.827 651.362,-170.827 655.862,-180.827 655.862,-180.827"/>
</g>
<!-- User -->
<g id="node8" class="node"><title>User</title>
<path fill="none" stroke="black" d="M487,-607.5C487,-607.5 710.725,-607.5 710.725,-607.5 716.725,-607.5 722.725,-613.5 722.725,-619.5 722.725,-619.5 722.725,-751.5 722.725,-751.5 722.725,-757.5 716.725,-763.5 710.725,-763.5 710.725,-763.5 487,-763.5 487,-763.5 481,-763.5 475,-757.5 475,-751.5 475,-751.5 475,-619.5 475,-619.5 475,-613.5 481,-607.5 487,-607.5"/>
<text text-anchor="middle" x="598.862" y="-748.3" font-family="Times,serif" font-size="14.00">User</text>
<polyline fill="none" stroke="black" points="475,-741.5 722.725,-741.5 "/>
<text text-anchor="start" x="483" y="-726.3" font-family="Times,serif" font-size="14.00">id :integer</text>
<text text-anchor="start" x="483" y="-712.3" font-family="Times,serif" font-size="14.00">name :character varying</text>
<text text-anchor="start" x="483" y="-698.3" font-family="Times,serif" font-size="14.00">seeking :integer</text>
<text text-anchor="start" x="483" y="-684.3" font-family="Times,serif" font-size="14.00">settings :bytea</text>
<text text-anchor="start" x="483" y="-670.3" font-family="Times,serif" font-size="14.00">created_at :timestamp without time zone</text>
<text text-anchor="start" x="483" y="-656.3" font-family="Times,serif" font-size="14.00">updated_at :timestamp without time zone</text>
<text text-anchor="start" x="483" y="-642.3" font-family="Times,serif" font-size="14.00">facebook_id :character varying</text>
<text text-anchor="start" x="483" y="-628.3" font-family="Times,serif" font-size="14.00">google_id :character varying</text>
<text text-anchor="start" x="483" y="-614.3" font-family="Times,serif" font-size="14.00">email :character varying</text>
</g>
<!-- User&#45;&gt;Application -->
<g id="edge9" class="edge"><title>User&#45;&gt;Application</title>
<path fill="none" stroke="#aefbf8" d="M465.452,-607.257C349.678,-572.401 287.264,-647.503 199.862,-571 148.147,-525.734 130.068,-448.965 124.407,-387.632"/>
<polygon fill="#aefbf8" stroke="#aefbf8" points="465.462,-607.26 473.593,-614.618 470.219,-608.798 474.977,-610.336 474.977,-610.336 474.977,-610.336 470.219,-608.798 476.361,-606.054 465.462,-607.26 465.462,-607.26"/>
<polygon fill="#aefbf8" stroke="#aefbf8" points="124.397,-387.507 128.059,-377.17 123.985,-382.524 123.574,-377.541 123.574,-377.541 123.574,-377.541 123.985,-382.524 119.089,-377.911 124.397,-387.507 124.397,-387.507"/>
</g>
<!-- User&#45;&gt;Board -->
<g id="edge6" class="edge"><title>User&#45;&gt;Board</title>
<path fill="none" stroke="#77b528" d="M484.635,-602.479C459.242,-584.246 432.917,-565.344 409.465,-548.504"/>
<ellipse fill="none" stroke="#77b528" cx="488.188" cy="-605.03" rx="4.00002" ry="4.00002"/>
<polygon fill="#77b528" stroke="#77b528" points="409.418,-548.47 403.92,-538.983 405.357,-545.554 401.295,-542.638 401.295,-542.638 401.295,-542.638 405.357,-545.554 398.67,-546.293 409.418,-548.47 409.418,-548.47"/>
</g>
<!-- User&#45;&gt;Company -->
<g id="edge7" class="edge"><title>User&#45;&gt;Company</title>
<path fill="none" stroke="#4407ba" d="M598.862,-599.077C598.862,-593.003 598.862,-586.875 598.862,-580.792"/>
<ellipse fill="none" stroke="#4407ba" cx="598.862" cy="-603.364" rx="4" ry="4"/>
<polygon fill="#4407ba" stroke="#4407ba" points="598.862,-580.614 603.362,-570.614 598.862,-575.614 598.862,-570.614 598.862,-570.614 598.862,-570.614 598.862,-575.614 594.362,-570.614 598.862,-580.614 598.862,-580.614"/>
</g>
<!-- User&#45;&gt;Contact -->
<g id="edge8" class="edge"><title>User&#45;&gt;Contact</title>
<path fill="none" stroke="#883e56" d="M714.363,-599.357C721.244,-590.491 727.239,-581.024 731.862,-571 761.088,-507.638 751.236,-481.034 731.862,-414 727.789,-399.907 721.524,-385.876 714.301,-372.634"/>
<polygon fill="#883e56" stroke="#883e56" points="714.159,-599.604 704.331,-604.469 710.983,-603.466 707.807,-607.328 707.807,-607.328 707.807,-607.328 710.983,-603.466 711.282,-610.186 714.159,-599.604 714.159,-599.604"/>
<polygon fill="#883e56" stroke="#883e56" points="714.107,-372.294 713.073,-361.377 711.635,-367.948 709.162,-363.602 709.162,-363.602 709.162,-363.602 711.635,-367.948 705.251,-365.828 714.107,-372.294 714.107,-372.294"/>
</g>
<!-- User&#45;&gt;Interaction -->
<g id="edge10" class="edge"><title>User&#45;&gt;Interaction</title>
<path fill="none" stroke="#4a71db" d="M730.199,-603.008C739.924,-593.165 748.707,-582.486 755.862,-571 801.873,-497.136 781.503,-464.711 788.862,-378 795.29,-302.272 819.667,-276.477 788.862,-207 784.463,-197.077 778.798,-187.624 772.293,-178.696"/>
<polygon fill="#4a71db" stroke="#4a71db" points="730.141,-603.064 719.83,-606.796 726.552,-606.545 722.962,-610.026 722.962,-610.026 722.962,-610.026 726.552,-606.545 726.095,-613.256 730.141,-603.064 730.141,-603.064"/>
<polygon fill="#4a71db" stroke="#4a71db" points="772.196,-178.57 769.662,-167.901 769.146,-174.608 766.096,-170.646 766.096,-170.646 766.096,-170.646 769.146,-174.608 762.53,-173.391 772.196,-178.57 772.196,-178.57"/>
</g>
</g>
</svg>
