<?xml version="1.0" encoding="UTF-8" standalone="no"?>
<!DOCTYPE svg PUBLIC "-//W3C//DTD SVG 1.1//EN"
 "http://www.w3.org/Graphics/SVG/1.1/DTD/svg11.dtd">
<!-- Generated by graphviz version 2.38.0 (20140413.2041)
 -->
<!-- Title: models_diagram Pages: 1 -->
<svg width="348pt" height="297pt"
 viewBox="0.00 0.00 348.27 297.00" xmlns="http://www.w3.org/2000/svg" xmlns:xlink="http://www.w3.org/1999/xlink">
<g id="graph0" class="graph" transform="scale(1 1) rotate(0) translate(4 293)">
<title>models_diagram</title>
<polygon fill="none" stroke="none" points="-4,4 -4,-293 344.275,-293 344.275,4 -4,4"/>
<!-- _diagram_info -->
<g id="node1" class="node"><title>_diagram_info</title>
<text text-anchor="start" x="8" y="-274.6" font-family="Times,serif" font-size="13.00">Models diagram</text>
<text text-anchor="start" x="8" y="-261.6" font-family="Times,serif" font-size="13.00">Date: Nov 30 2015 &#45; 14:50</text>
<text text-anchor="start" x="8" y="-248.6" font-family="Times,serif" font-size="13.00">Migration version: 20151110192115</text>
<text text-anchor="start" x="8" y="-235.6" font-family="Times,serif" font-size="13.00">Generated by RailRoady 1.4.1</text>
<text text-anchor="start" x="8" y="-222.6" font-family="Times,serif" font-size="13.00">http://railroady.prestonlee.com</text>
</g>
<!-- Application -->
<g id="node2" class="node"><title>Application</title>
<ellipse fill="none" stroke="black" cx="100.974" cy="-90" rx="51.7174" ry="18"/>
<text text-anchor="middle" x="100.974" y="-85.8" font-family="Times,serif" font-size="14.00">Application</text>
</g>
<!-- Interaction -->
<g id="node6" class="node"><title>Interaction</title>
<ellipse fill="none" stroke="black" cx="289.974" cy="-18" rx="48.3169" ry="18"/>
<text text-anchor="middle" x="289.974" y="-13.8" font-family="Times,serif" font-size="14.00">Interaction</text>
</g>
<!-- Application&#45;&gt;Interaction -->
<g id="edge1" class="edge"><title>Application&#45;&gt;Interaction</title>
<path fill="none" stroke="#b8c0f8" d="M142.754,-73.5259C173.78,-62.0345 215.957,-46.4136 247.215,-34.8366"/>
<ellipse fill="none" stroke="#b8c0f8" cx="138.951" cy="-74.9342" rx="4.00001" ry="4.00001"/>
<polygon fill="#b8c0f8" stroke="#b8c0f8" points="247.574,-34.7035 258.515,-35.4502 252.263,-32.9669 256.952,-31.2303 256.952,-31.2303 256.952,-31.2303 252.263,-32.9669 255.389,-27.0104 247.574,-34.7035 247.574,-34.7035"/>
</g>
<!-- Board -->
<g id="node3" class="node"><title>Board</title>
<ellipse fill="none" stroke="black" cx="156.974" cy="-162" rx="31.9393" ry="18"/>
<text text-anchor="middle" x="156.974" y="-157.8" font-family="Times,serif" font-size="14.00">Board</text>
</g>
<!-- Board&#45;&gt;Application -->
<g id="edge2" class="edge"><title>Board&#45;&gt;Application</title>
<path fill="none" stroke="#f4f62a" d="M139.21,-138.796C133.313,-131.424 126.713,-123.174 120.678,-115.631"/>
<ellipse fill="none" stroke="#f4f62a" cx="141.768" cy="-141.992" rx="4.00002" ry="4.00002"/>
<polygon fill="#f4f62a" stroke="#f4f62a" points="120.658,-115.606 117.925,-104.986 117.535,-111.702 114.412,-107.797 114.412,-107.797 114.412,-107.797 117.535,-111.702 110.898,-110.608 120.658,-115.606 120.658,-115.606"/>
</g>
<!-- Note -->
<g id="node7" class="node"><title>Note</title>
<ellipse fill="none" stroke="black" cx="197.974" cy="-90" rx="27.0958" ry="18"/>
<text text-anchor="middle" x="197.974" y="-85.8" font-family="Times,serif" font-size="14.00">Note</text>
</g>
<!-- Board&#45;&gt;Note -->
<g id="edge3" class="edge"><title>Board&#45;&gt;Note</title>
<path fill="none" stroke="#f791cb" d="M170.58,-137.769C174.622,-130.868 179.069,-123.276 183.182,-116.253"/>
<ellipse fill="none" stroke="#f791cb" cx="168.505" cy="-141.313" rx="4.00002" ry="4.00002"/>
<polygon fill="#f791cb" stroke="#f791cb" points="183.462,-115.776 192.399,-109.422 185.989,-111.462 188.516,-107.147 188.516,-107.147 188.516,-107.147 185.989,-111.462 184.633,-104.873 183.462,-115.776 183.462,-115.776"/>
</g>
<!-- Company -->
<g id="node4" class="node"><title>Company</title>
<ellipse fill="none" stroke="black" cx="250.974" cy="-162" rx="44.4923" ry="18"/>
<text text-anchor="middle" x="250.974" y="-157.8" font-family="Times,serif" font-size="14.00">Company</text>
</g>
<!-- Contact -->
<g id="node5" class="node"><title>Contact</title>
<ellipse fill="none" stroke="black" cx="289.974" cy="-90" rx="37.7266" ry="18"/>
<text text-anchor="middle" x="289.974" y="-85.8" font-family="Times,serif" font-size="14.00">Contact</text>
</g>
<!-- Company&#45;&gt;Contact -->
<g id="edge4" class="edge"><title>Company&#45;&gt;Contact</title>
<path fill="none" stroke="#66bd5d" d="M264.346,-136.998C267.946,-130.537 271.855,-123.521 275.511,-116.959"/>
<ellipse fill="none" stroke="#66bd5d" cx="262.361" cy="-140.561" rx="4.00002" ry="4.00002"/>
<polygon fill="#66bd5d" stroke="#66bd5d" points="275.753,-116.525 284.551,-109.979 278.186,-112.157 280.62,-107.789 280.62,-107.789 280.62,-107.789 278.186,-112.157 276.689,-105.599 275.753,-116.525 275.753,-116.525"/>
</g>
<!-- Contact&#45;&gt;Interaction -->
<g id="edge5" class="edge"><title>Contact&#45;&gt;Interaction</title>
<path fill="none" stroke="#2feb1d" d="M289.974,-63.6398C289.974,-58.0629 289.974,-52.1319 289.974,-46.4761"/>
<ellipse fill="none" stroke="#2feb1d" cx="289.974" cy="-67.6966" rx="4" ry="4"/>
<polygon fill="#2feb1d" stroke="#2feb1d" points="289.974,-46.1043 294.474,-36.1043 289.974,-41.1043 289.974,-36.1043 289.974,-36.1043 289.974,-36.1043 289.974,-41.1043 285.474,-36.1044 289.974,-46.1043 289.974,-46.1043"/>
</g>
<!-- User -->
<g id="node8" class="node"><title>User</title>
<ellipse fill="none" stroke="black" cx="250.974" cy="-252.5" rx="27" ry="18"/>
<text text-anchor="middle" x="250.974" y="-248.3" font-family="Times,serif" font-size="14.00">User</text>
</g>
<!-- User&#45;&gt;Application -->
<g id="edge9" class="edge"><title>User&#45;&gt;Application</title>
<path fill="none" stroke="#eb393e" d="M231.249,-229.08C226.283,-224.314 220.72,-219.631 214.974,-216 175.396,-190.988 145.938,-215.974 115.974,-180 101.758,-162.933 98.6865,-137.48 98.7759,-118.16"/>
<polygon fill="#eb393e" stroke="#eb393e" points="231.511,-229.347 235.284,-239.644 235.006,-232.923 238.502,-236.498 238.502,-236.498 238.502,-236.498 235.006,-232.923 241.719,-233.352 231.511,-229.347 231.511,-229.347"/>
<polygon fill="#eb393e" stroke="#eb393e" points="98.7763,-118.144 103.598,-108.295 98.9382,-113.147 99.1001,-108.149 99.1001,-108.149 99.1001,-108.149 98.9382,-113.147 94.6025,-108.004 98.7763,-118.144 98.7763,-118.144"/>
</g>
<!-- User&#45;&gt;Board -->
<g id="edge6" class="edge"><title>User&#45;&gt;Board</title>
<path fill="none" stroke="#3e92fb" d="M230.639,-231.182C225.56,-226.18 220.098,-220.865 214.974,-216 203.937,-205.523 191.505,-194.112 180.989,-184.571"/>
<ellipse fill="none" stroke="#3e92fb" cx="233.54" cy="-234.051" rx="4.00002" ry="4.00002"/>
<polygon fill="#3e92fb" stroke="#3e92fb" points="180.793,-184.394 176.395,-174.348 177.085,-181.04 173.376,-177.686 173.376,-177.686 173.376,-177.686 177.085,-181.04 170.358,-181.023 180.793,-184.394 180.793,-184.394"/>
</g>
<!-- User&#45;&gt;Company -->
<g id="edge7" class="edge"><title>User&#45;&gt;Company</title>
<path fill="none" stroke="#27656d" d="M250.974,-226.189C250.974,-214.971 250.974,-201.752 250.974,-190.311"/>
<ellipse fill="none" stroke="#27656d" cx="250.974" cy="-230.436" rx="4" ry="4"/>
<polygon fill="#27656d" stroke="#27656d" points="250.974,-190.011 255.474,-180.011 250.974,-185.011 250.974,-180.011 250.974,-180.011 250.974,-180.011 250.974,-185.011 246.474,-180.011 250.974,-190.011 250.974,-190.011"/>
</g>
<!-- User&#45;&gt;Contact -->
<g id="edge8" class="edge"><title>User&#45;&gt;Contact</title>
<path fill="none" stroke="#199198" d="M272.951,-229.69C284.619,-216.525 297.795,-198.712 303.974,-180 310.729,-159.543 306.163,-135.336 300.502,-117.336"/>
<polygon fill="#199198" stroke="#199198" points="272.746,-229.912 262.653,-234.199 269.352,-233.583 265.957,-237.254 265.957,-237.254 265.957,-237.254 269.352,-233.583 269.261,-240.309 272.746,-229.912 272.746,-229.912"/>
<polygon fill="#199198" stroke="#199198" points="300.469,-117.24 301.47,-106.32 298.842,-112.512 297.215,-107.784 297.215,-107.784 297.215,-107.784 298.842,-112.512 292.96,-109.248 300.469,-117.24 300.469,-117.24"/>
</g>
<!-- User&#45;&gt;Interaction -->
<g id="edge10" class="edge"><title>User&#45;&gt;Interaction</title>
<path fill="none" stroke="#bf98db" d="M276.018,-231.632C290.93,-218.502 309.023,-200.057 319.974,-180 335.729,-151.141 333.17,-140.659 336.974,-108 338.824,-92.1074 342.651,-86.9589 336.974,-72 332.764,-60.908 325.053,-50.6496 317.077,-42.1715"/>
<polygon fill="#bf98db" stroke="#bf98db" points="275.738,-231.871 265.208,-234.932 271.933,-235.114 268.127,-238.357 268.127,-238.357 268.127,-238.357 271.933,-235.114 271.046,-241.782 275.738,-231.871 275.738,-231.871"/>
<polygon fill="#bf98db" stroke="#bf98db" points="316.865,-41.961 312.942,-31.7208 313.318,-38.4371 309.771,-34.9132 309.771,-34.9132 309.771,-34.9132 313.318,-38.4371 306.599,-38.1057 316.865,-41.961 316.865,-41.961"/>
</g>
</g>
</svg>
